<svg version="1.1" id="Layer_1" xmlns="http://www.w3.org/2000/svg" x="0" y="0" width="250.1" height="173.1" viewBox="0 0 250.1 173.1" xml:space="preserve"><style type="text/css">.st0{fill:#17131c}.st1{fill:#fbf4e1}.st2{fill:#8d7852}</style><path transform="rotate(-44.992 241.654 103.605)" class="st0" d="M235.6 97.6h12v12h-12z"/><path transform="rotate(-44.992 241.654 86.565)" class="st0" d="M235.6 80.5h12v12h-12z"/><path transform="rotate(-45.004 241.627 69.52)" class="st0" d="M235.6 63.5h12v12h-12z"/><path transform="rotate(-45 8.506 103.61)" class="st0" d="M2.5 97.6h12v12h-12z"/><path transform="rotate(-45 8.506 86.57)" class="st0" d="M2.5 80.5h12v12h-12z"/><path transform="rotate(-44.992 8.504 69.526)" class="st0" d="M2.5 63.5h12v12h-12z"/><path class="st1" d="M232.6 41.8h-78.5l-29-29.1L96 41.8H17.5v89.6H96l29.1 29 29-29h78.5z"/><path class="st0" d="M125.1 173.1l-32.8-32.8H8.5V32.8h83.8L125.1 0l32.8 32.8h83.8v107.6h-83.8l-32.8 32.7zm-98.6-50.7h73.3l25.3 25.3 25.3-25.3h73.2V50.8h-73.2l-25.3-25.3-25.3 25.3H26.5v71.6z"/><path class="st2" d="M125.1 162.5l-29.7-29.7H16V40.3h79.4l29.7-29.7 29.7 29.7h79.4v92.6h-79.4l-29.7 29.6zM19 129.9h77.6l28.4 28.4 28.4-28.4H231V43.3h-77.6L125 14.9 96.6 43.3H19v86.6z"/><path class="st0" d="M34.7 57.7v57.8h24.6l4.7-4.7V90.7L59.2 86l4.7-4.7V62.4l-4.7-4.7H34.7zm19.6 47.2l-1.1 1.1h-8.8V90.7h8.8l1.1 1.1v13.1zm0-24.6l-1.1 1.1h-8.8V66.9h8.8l1.1 1.1v12.3zm35.6 24.6l-1.1 1.1h-8.4V57.7H70.8V115.5H95l4.7-4.7v-12H90v6.1zm65.4-47.2l-4.7 4.7v48.3l4.7 4.7h19.5l4.7-4.7V98.8h-9.7v6.1l-1.1 1.1h-7.3l-1.1-1.1V68.2l1.1-1.1h7.3l1.1 1.1v6.1h9.7V62.4l-4.7-4.7h-19.5zm-30.2-21.5l-18.8 79.3h10l8.8-36.9 8.8 36.9h10l-18.8-79.3z"/><g><path transform="rotate(-45 125.073 129.674)" class="st0" d="M119.9 124.5h10.3v10.3h-10.3z"/></g><path class="st0" d="M116.5 96.6h17.2v9.4h-17.2z"/><g><path class="st0" d="M206.1 83.2l13.8 32.2h-10.6l-9.1-21.3-4.6 8.4v12.9h-9.5V57.7h9.5v26.4l13.6-26.4H220l-13.9 25.5z"/></g></svg>