<svg version="1.1" id="Layer_1" xmlns="http://www.w3.org/2000/svg" x="0" y="0" width="230" height="153.9" viewBox="0 0 230 153.9" xml:space="preserve"><style type="text/css">.st0{fill:#17131c}.st1{fill:#7ca5ba}.st2{fill:#8d7852}.st3{fill:#fbf4e1}</style><path transform="rotate(-44.992 221.505 76.942)" class="st0" d="M215.5 70.9h12v12h-12z"/><path transform="rotate(-45 8.502 76.94)" class="st0" d="M2.5 70.9h12v12h-12z"/><path class="st1" d="M203.6 50.5h-16.3l2.4-7.1h-6.5l-.1-.5C164.1 27.3 140.6 18 115 18c-25.6 0-49.1 9.3-68 24.8l-.1.5h-6.5l2.4 7.1H26.4v52.9h16.3l-2.4 7.1h6.5l.2.6c18.9 15.6 42.4 24.9 68 24.9s49.1-9.3 68-24.8l.1-.5h6.5l-2.4-7.1h16.3v-53z"/><path class="st0" d="M115 18c25.6 0 49.1 9.3 68 24.9l.1.5h6.5l-2.4 7.1h16.3v52.9h-16.3l2.4 7.1h-6.5l-.1.5c-18.9 15.6-42.4 24.8-68 24.8s-49.1-9.3-68-24.9l-.1-.5h-6.5l2.4-7.1H26.4V50.5h16.3l-2.4-7.1h6.5l.1-.5C65.9 27.3 89.4 18 115 18m0-18C87.9 0 62.1 8.7 40.1 25.3H15.4l2.4 7.1H8.4v88.9h9.4l-2.4 7.1h24.8c22 16.6 47.7 25.3 74.8 25.3 27.1 0 52.9-8.7 74.8-25.3h24.7l-2.4-7.1h9.4V32.5h-9.4l2.4-7.1h-24.8C167.8 8.7 142.1 0 115 0z"/><path class="st2" d="M115 146.4c-26.1 0-50.9-8.8-71.9-25.3H26.5l2.4-7.1H16.6V40h12.2l-2.4-7.1H43C64.1 16.3 88.9 7.5 115 7.5s50.9 8.8 71.8 25.3h16.7l-2.4 7.1h12.2v73.9h-12.2l2.4 7.1h-16.6c-21 16.7-45.8 25.5-71.9 25.5zM30.6 118h13.6l.4.3c20.5 16.4 44.9 25 70.4 25 25.6 0 49.9-8.6 70.4-25l.4-.3h13.5l-2.4-7.1h13.4V43H197l2.4-7.1h-13.6l-.4-.3c-20.5-16.4-44.8-25-70.4-25-25.6 0-49.9 8.6-70.4 25l-.4.3H30.6L33 43H19.6v67.9H33l-2.4 7.1z"/><path class="st0" d="M59.1 59.9c8.8 0 13.8 3.5 13.8 9.8 0 3.3-1.4 5.4-3.9 6.7 3.4 1.3 5.3 3.8 5.3 7.8 0 6.7-5 9.8-13.8 9.8H36.3V60h22.8zm-11.6 9.9v2.6h11.6c1.2 0 2-.3 2-1.3s-.8-1.4-2-1.4H47.5zm0 11.6V84h13c1.2 0 2-.4 2-1.4 0-1-.8-1.3-2-1.3h-13zM89.2 84.1h22.9V94H78V60h11.2v24.1zM154.5 80.7c0 9.8-5.8 13.3-16 13.3h-7.3c-10.2 0-16-3.5-16-13.3V59.9h11.2v20.7c0 2.4 1.9 3.4 4.9 3.4h7.3c3 0 4.9-1 4.9-3.4V59.9h11.2v20.8zM193.7 59.9v9.9H170v2.6h23.7v9H170V84h23.7v9.9h-34.9v-34h34.9z"/><path class="st3" d="M149.7 111.8l-3.5 19.3c6.7-2.1 13.2-4.9 19.3-8.2l-15.8-11.1zM183.1 110.5l-14.5-3.3-3 15.7c6.2-3.4 12-7.3 17.4-11.8l.1-.6zM132 114l-6.2 21.3c6.9-.7 13.6-2.1 20-4.1L132 114zM64.5 122.9c6.1 3.3 12.6 6.1 19.3 8.2l-3.5-19.3-15.8 11.1zM46.9 110.5l.1.5c5.4 4.5 11.3 8.5 17.4 11.9l-3-15.6-14.5 3.2zM98 114l-13.8 17.2c6.5 2 13.1 3.4 20 4.1L98 114zM125.1 135.4L115 114.8l-10.1 20.6c3.3.3 6.7.5 10.1.5 3.4 0 6.8-.2 10.1-.5zM80.3 42.1l3.5-19.3c-6.7 2.1-13.1 4.9-19.3 8.2l15.8 11.1zm-33.4 1.3l14.5 3.3 3-15.7c-6.2 3.4-12 7.3-17.4 11.8l-.1.6zM98 39.9l6.2-21.3c-6.9.7-13.6 2.1-20 4.1L98 39.9zm67.5-8.9c-6.1-3.3-12.6-6.1-19.3-8.2l3.5 19.3L165.5 31zm17.6 12.4l-.1-.5c-5.4-4.5-11.3-8.5-17.5-11.9l3 15.6 14.6-3.2zM132 39.9l13.8-17.2c-6.5-2-13.1-3.4-20-4.1l6.2 21.3zm-27.1-21.4L115 39.1l10.1-20.6c-3.3-.3-6.7-.5-10.1-.5-3.4 0-6.8.2-10.1.5z"/></svg>