<svg version="1.1" id="Layer_1" xmlns="http://www.w3.org/2000/svg" x="0" y="0" width="260.6" height="173.3" viewBox="0 0 260.6 173.3" xml:space="preserve"><style type="text/css">.st0{fill:#8d7852}.st1{fill:#17131c}.st2{fill:#ae262a}.st3{fill:#fbf4e1}</style><path class="st0" d="M141.3 26.6l-11-11-11 11-11-11v29.1h44V15.6z"/><path class="st1" d="M140.9 31l-4.3 4.2 4.3 4.2 4.3-4.2-4.3-4.2zm-25.5 4.3l4.3 4.3 4.2-4.3-4.2-4.3-4.3 4.3z"/><path transform="rotate(-45.01 130.29 35.284)" class="st1" d="M127.3 32.3h6v6h-6z"/><path class="st1" d="M221.8 9h18v52.5h-18zM191.1 21.6h18v39.9h-18zM160.5 9h18v52.5h-18zM20.8 9h18v52.5h-18zM51.5 21.6h18v39.9h-18zM82.1 9h18v52.5h-18z"/><path class="st2" d="M12.7 94.5zm235.2 21.3zm0-55.4H12.7v12.9l10.6 10.6-10.6 10.6 10.6 10.6-10.6 10.6 10.6 10.6L12.7 137v12.9h85.7l10.6 10.6 10.6-10.6 10.6 10.6 10.6-10.6 10.6 10.6 10.6-10.6h85.7V137l-10.6-10.6 10.6-10.6-10.6-10.6 10.6-10.6L237.1 84l10.6-10.6v-13z"/><path class="st1" d="M250 105.1l10.6-10.6L250 83.9l6.9-6.9V51.4H3.7V77l6.9 6.9L0 94.5l10.6 10.6L0 115.8l10.6 10.6-6.9 6.9v25.6h90.9l14.4 14.3 10.6-10.6 10.6 10.6 10.6-10.6 10.6 10.6 14.4-14.3h90.9v-25.6l-6.9-6.9 10.6-10.6-10.4-10.7zm-11.1-35.6l-14.4 14.4 10.6 10.6-10.6 10.6 10.6 10.6-10.6 10.6 14.4 14.4v.2h-80.4l-6.9 6.9-10.6-10.6-10.6 10.6-10.6-10.6-10.8 10.6-6.9-6.9H21.7v-.2l14.4-14.4-10.6-10.6 10.6-10.6-10.7-10.6L36 83.9 21.7 69.5v-.2h217.1v.2z"/><path class="st0" d="M239.4 105.1L250 94.5l-10.6-10.6 10-10v-15H11.2v15l10 10-10.6 10.6 10.6 10.6-10.6 10.6 10.6 10.6-10 10v15h86.6l11.3 11.2 10.6-10.6.6.6 10 10 10.6-10.6 10.6 10.6 11.3-11.2h86.6v-15l-10-10 10.6-10.6-10.6-10.6zm7 32.5v10.8h-84.8l-10 10-10.6-10.6-10.6 10.6-10.6-10.6-10.8 10.6-10-10H14.2v-10.8l11.2-11.3-10.6-10.6 10.6-10.6-10.6-10.6 10.6-10.6-11.2-11.3V61.9h232.1v10.8L235.1 84l10.6 10.6-10.6 10.6 10.6 10.6-10.6 10.6 11.3 11.2z"/><path class="st3" d="M102.3 100.7c0 7.5-2.9 11.9-8 14l9 10.6H87.5l-7.5-8.9H69.4v8.9H56.2V84.9h27.1c12.1 0 19 4.1 19 15.8zm-32.9-4v8.1h13.8c3.6 0 5.8-1.1 5.8-4s-2.2-4-5.8-4H69.4zM149.9 84.9v11.8H122v3.1h27.9v10.7H122v3.1h27.9v11.8h-41.2V84.9h41.2zM156.5 125.4V84.9h28.9c12.1 0 19.1 4.2 19.1 15.8v8.9c0 11.7-6.9 15.8-19.1 15.8h-28.9zm13.3-28.7v17h15.6c3.6 0 5.8-1.1 5.8-4.1v-8.9c0-2.9-2.2-4-5.8-4h-15.6z"/><path class="st0" d="M89.6 9h3v52.5h-3zM59 21.6h3v39.9h-3z"/><path transform="rotate(-45 91.137 9.024)" class="st0" d="M84.8 2.6h12.8v12.8H84.8z"/><path transform="rotate(-45 60.448 21.665)" class="st0" d="M54.1 15.3h12.8v12.8H54.1z"/><path class="st0" d="M28.3 9h3v52.5h-3z"/><g><path transform="rotate(-45 29.766 9.023)" class="st0" d="M23.4 2.6h12.8v12.8H23.4z"/></g><path class="st0" d="M168 9h3v52.5h-3zM198.6 21.6h3v39.9h-3z"/><g><path transform="rotate(-45 169.45 9.026)" class="st0" d="M163.1 2.6h12.8v12.8h-12.8z"/></g><g><path transform="rotate(-45 200.138 21.666)" class="st0" d="M193.8 15.3h12.8v12.8h-12.8z"/></g><path class="st0" d="M229.3 9h3v52.5h-3z"/><g><path transform="rotate(-45 230.815 9.03)" class="st0" d="M224.4 2.6h12.8v12.8h-12.8z"/></g></svg>